<?xml version="1.0" encoding="utf-8"?>
<!-- Generator: Adobe Illustrator 16.0.3, SVG Export Plug-In . SVG Version: 6.00 Build 0)  -->
<svg version="1.2" baseProfile="tiny" id="Ebene_1" xmlns="http://www.w3.org/2000/svg" xmlns:xlink="http://www.w3.org/1999/xlink"
	 x="0px" y="0px" width="155.626px" height="116.149px" viewBox="0 0 155.626 116.149" xml:space="preserve">
<g>
	<path d="M12.648,91.917c0,1.619-0.443,2.928-1.331,3.927s-2.077,1.499-3.57,1.499c-1.47,0-2.643-0.5-3.519-1.499
		s-1.313-2.308-1.313-3.927v-2.041c0-1.614,0.437-2.923,1.309-3.928c0.873-1.004,2.044-1.507,3.514-1.507
		c1.493,0,2.684,0.502,3.574,1.507c0.89,1.005,1.335,2.314,1.335,3.928V91.917z M11.624,89.858c0-1.355-0.343-2.446-1.029-3.272
		c-0.686-0.827-1.638-1.24-2.855-1.24c-1.194,0-2.125,0.413-2.791,1.24c-0.666,0.827-0.999,1.917-0.999,3.272v2.059
		c0,1.367,0.334,2.463,1.003,3.29s1.601,1.24,2.795,1.24c1.223,0,2.174-0.412,2.855-1.236c0.68-0.824,1.021-1.922,1.021-3.294
		V89.858z"/>
	<path d="M16.352,91.951v5.21h-1.033v-12.54h4.323c1.315,0,2.333,0.336,3.053,1.008c0.721,0.672,1.081,1.556,1.081,2.652
		c0,1.114-0.36,2.004-1.081,2.67c-0.72,0.667-1.738,1-3.053,1H16.352z M16.352,91.072h3.29c1.034,0,1.809-0.263,2.326-0.788
		s0.775-1.187,0.775-1.985c0-0.804-0.258-1.471-0.775-2.002S20.675,85.5,19.642,85.5h-3.29V91.072z"/>
	<path d="M32.854,91.09h-5.625v5.202h6.503v0.87h-7.536v-12.54h7.493V85.5h-6.46v4.711h5.625V91.09z"/>
	<path d="M45.161,97.162h-1.033L37.005,86.43l-0.052,0.009v10.723H35.92v-12.54h1.033l7.123,10.706l0.052-0.009V84.622h1.033V97.162
		z"/>
	<path d="M59.217,93.665h-5.504l-1.266,3.497h-1.068l4.608-12.54h0.973l4.573,12.54h-1.068L59.217,93.665z M54.041,92.743h4.84
		l-2.377-6.649h-0.051L54.041,92.743z"/>
	<path d="M72.015,93.243l0.018,0.052c0.023,1.229-0.379,2.211-1.206,2.946c-0.827,0.735-1.912,1.102-3.255,1.102
		c-1.396,0-2.521-0.503-3.376-1.511c-0.855-1.008-1.283-2.313-1.283-3.915v-2.041c0-1.596,0.428-2.901,1.283-3.915
		c0.856-1.014,1.981-1.52,3.376-1.52c1.361,0,2.45,0.359,3.269,1.076c0.818,0.718,1.216,1.706,1.193,2.963l-0.018,0.052h-0.964
		c0-1.011-0.309-1.799-0.926-2.364s-1.469-0.848-2.554-0.848c-1.097,0-1.977,0.425-2.64,1.274c-0.664,0.85-0.995,1.938-0.995,3.264
		v2.059c0,1.344,0.332,2.439,0.995,3.286c0.663,0.847,1.543,1.271,2.64,1.271c1.085,0,1.937-0.276,2.554-0.827
		c0.617-0.551,0.926-1.353,0.926-2.403H72.015z"/>
	<path d="M83.324,93.243l0.018,0.052c0.023,1.229-0.379,2.211-1.206,2.946c-0.827,0.735-1.912,1.102-3.255,1.102
		c-1.396,0-2.521-0.503-3.376-1.511c-0.855-1.008-1.283-2.313-1.283-3.915v-2.041c0-1.596,0.428-2.901,1.283-3.915
		c0.856-1.014,1.981-1.52,3.376-1.52c1.361,0,2.45,0.359,3.269,1.076c0.818,0.718,1.216,1.706,1.193,2.963l-0.018,0.052h-0.964
		c0-1.011-0.309-1.799-0.926-2.364s-1.469-0.848-2.554-0.848c-1.097,0-1.977,0.425-2.64,1.274c-0.664,0.85-0.995,1.938-0.995,3.264
		v2.059c0,1.344,0.332,2.439,0.995,3.286c0.663,0.847,1.543,1.271,2.64,1.271c1.085,0,1.937-0.276,2.554-0.827
		c0.617-0.551,0.926-1.353,0.926-2.403H83.324z"/>
	<path d="M92.652,91.09h-5.625v5.202h6.503v0.87h-7.536v-12.54h7.493V85.5h-6.46v4.711h5.625V91.09z"/>
	<path d="M102.789,94.113c0-0.643-0.255-1.174-0.767-1.593c-0.511-0.419-1.378-0.813-2.601-1.18
		c-1.338-0.367-2.355-0.825-3.053-1.374c-0.698-0.548-1.047-1.293-1.047-2.235c0-0.959,0.391-1.747,1.171-2.364
		s1.777-0.926,2.989-0.926c1.274,0,2.299,0.349,3.075,1.046c0.775,0.697,1.151,1.583,1.128,2.657l-0.018,0.052h-0.964
		c0-0.827-0.3-1.513-0.9-2.059c-0.6-0.545-1.374-0.818-2.321-0.818c-0.976,0-1.741,0.231-2.295,0.693
		c-0.554,0.462-0.831,1.029-0.831,1.701c0,0.638,0.251,1.162,0.753,1.572c0.502,0.411,1.388,0.794,2.657,1.15
		c1.321,0.385,2.328,0.858,3.023,1.421c0.695,0.563,1.042,1.309,1.042,2.239c0,0.976-0.407,1.761-1.219,2.355
		c-0.813,0.594-1.836,0.891-3.071,0.891c-1.234,0-2.311-0.314-3.229-0.943c-0.919-0.629-1.364-1.546-1.335-2.752l0.017-0.051h0.956
		c0,0.97,0.365,1.692,1.094,2.166s1.562,0.71,2.498,0.71c0.959,0,1.74-0.22,2.343-0.659
		C102.487,95.375,102.789,94.808,102.789,94.113z"/>
	<path d="M113.434,94.113c0-0.643-0.255-1.174-0.767-1.593c-0.511-0.419-1.378-0.813-2.601-1.18
		c-1.338-0.367-2.355-0.825-3.053-1.374c-0.698-0.548-1.047-1.293-1.047-2.235c0-0.959,0.391-1.747,1.171-2.364
		s1.777-0.926,2.989-0.926c1.274,0,2.299,0.349,3.075,1.046c0.775,0.697,1.151,1.583,1.128,2.657l-0.018,0.052h-0.964
		c0-0.827-0.3-1.513-0.9-2.059c-0.6-0.545-1.374-0.818-2.321-0.818c-0.976,0-1.741,0.231-2.295,0.693
		c-0.554,0.462-0.831,1.029-0.831,1.701c0,0.638,0.251,1.162,0.753,1.572c0.502,0.411,1.388,0.794,2.657,1.15
		c1.321,0.385,2.328,0.858,3.023,1.421c0.695,0.563,1.042,1.309,1.042,2.239c0,0.976-0.407,1.761-1.219,2.355
		c-0.813,0.594-1.836,0.891-3.071,0.891c-1.234,0-2.311-0.314-3.229-0.943c-0.919-0.629-1.364-1.546-1.335-2.752l0.017-0.051h0.956
		c0,0.97,0.365,1.692,1.094,2.166s1.562,0.71,2.498,0.71c0.959,0,1.74-0.22,2.343-0.659
		C113.133,95.375,113.434,94.808,113.434,94.113z"/>
	<path d="M11.977,103.139H7.705V114.8H6.68v-11.662H2.262v-0.878h9.715V103.139z"/>
	<path d="M15,109.133v5.667h-1.034v-12.531h4.177c1.343,0,2.374,0.294,3.092,0.883c0.718,0.588,1.077,1.448,1.077,2.579
		c0,0.667-0.191,1.262-0.573,1.787s-0.923,0.909-1.624,1.15c0.775,0.195,1.333,0.544,1.675,1.046
		c0.341,0.502,0.512,1.133,0.512,1.891v1.18c0,0.39,0.046,0.74,0.138,1.05s0.244,0.563,0.457,0.758v0.207h-1.051
		c-0.212-0.207-0.361-0.497-0.448-0.87c-0.086-0.373-0.129-0.761-0.129-1.163v-1.146c0-0.769-0.249-1.376-0.745-1.821
		s-1.19-0.667-2.08-0.667H15z M15,108.255h3.023c1.131,0,1.958-0.229,2.48-0.685s0.784-1.072,0.784-1.847
		c0-0.827-0.26-1.463-0.779-1.908c-0.52-0.445-1.308-0.667-2.364-0.667H15V108.255z"/>
	<path d="M32.062,111.304h-5.504l-1.266,3.497h-1.068l4.608-12.54h0.973l4.573,12.54H33.31L32.062,111.304z M26.885,110.382h4.84
		l-2.377-6.649h-0.051L26.885,110.382z"/>
	<path d="M45.558,114.8h-1.033l-7.123-10.731l-0.052,0.009V114.8h-1.033v-12.54h1.033l7.123,10.706l0.052-0.009V102.26h1.033V114.8z
		"/>
	<path d="M55.833,111.751c0-0.643-0.255-1.174-0.767-1.593c-0.511-0.419-1.378-0.813-2.601-1.18
		c-1.338-0.367-2.355-0.825-3.053-1.374c-0.698-0.548-1.047-1.293-1.047-2.235c0-0.959,0.391-1.747,1.171-2.364
		s1.777-0.926,2.989-0.926c1.274,0,2.299,0.349,3.075,1.046c0.775,0.697,1.151,1.583,1.128,2.657l-0.018,0.052h-0.964
		c0-0.827-0.3-1.513-0.9-2.059c-0.6-0.545-1.374-0.818-2.321-0.818c-0.976,0-1.741,0.231-2.295,0.693
		c-0.554,0.462-0.831,1.029-0.831,1.701c0,0.638,0.251,1.162,0.753,1.572c0.502,0.411,1.388,0.794,2.657,1.15
		c1.321,0.385,2.328,0.858,3.023,1.421c0.695,0.563,1.042,1.309,1.042,2.239c0,0.976-0.407,1.761-1.219,2.355
		c-0.813,0.594-1.836,0.891-3.071,0.891c-1.234,0-2.311-0.314-3.229-0.943c-0.919-0.629-1.364-1.546-1.335-2.752l0.017-0.051h0.956
		c0,0.97,0.365,1.692,1.094,2.166s1.562,0.71,2.498,0.71c0.959,0,1.74-0.22,2.343-0.659
		C55.531,113.013,55.833,112.446,55.833,111.751z"/>
	<path d="M66.202,108.926H60.44v5.874h-1.033v-12.54h7.674v0.878H60.44v4.901h5.762V108.926z"/>
	<path d="M78.32,109.555c0,1.619-0.443,2.928-1.331,3.927s-2.077,1.499-3.57,1.499c-1.47,0-2.643-0.5-3.519-1.499
		s-1.313-2.308-1.313-3.927v-2.041c0-1.614,0.437-2.923,1.309-3.928c0.873-1.004,2.044-1.507,3.514-1.507
		c1.493,0,2.684,0.502,3.574,1.507c0.89,1.005,1.335,2.314,1.335,3.928V109.555z M77.295,107.497c0-1.355-0.343-2.446-1.029-3.272
		c-0.686-0.827-1.638-1.24-2.855-1.24c-1.194,0-2.125,0.413-2.791,1.24c-0.666,0.827-0.999,1.917-0.999,3.272v2.059
		c0,1.367,0.334,2.463,1.003,3.29s1.601,1.24,2.795,1.24c1.223,0,2.174-0.412,2.855-1.236c0.68-0.824,1.021-1.922,1.021-3.294
		V107.497z"/>
	<path d="M81.998,109.133v5.667h-1.034v-12.531h4.177c1.343,0,2.374,0.294,3.092,0.883c0.718,0.588,1.077,1.448,1.077,2.579
		c0,0.667-0.191,1.262-0.573,1.787s-0.923,0.909-1.624,1.15c0.775,0.195,1.333,0.544,1.675,1.046
		c0.341,0.502,0.512,1.133,0.512,1.891v1.18c0,0.39,0.046,0.74,0.138,1.05s0.244,0.563,0.457,0.758v0.207h-1.051
		c-0.212-0.207-0.361-0.497-0.448-0.87c-0.086-0.373-0.129-0.761-0.129-1.163v-1.146c0-0.769-0.249-1.376-0.745-1.821
		s-1.19-0.667-2.08-0.667H81.998z M81.998,108.255h3.023c1.131,0,1.958-0.229,2.48-0.685s0.784-1.072,0.784-1.847
		c0-0.827-0.26-1.463-0.779-1.908c-0.52-0.445-1.308-0.667-2.364-0.667h-3.144V108.255z"/>
	<path d="M98.525,113.302h0.052l4.668-11.042h1.257v12.54h-1.033v-10.533l-0.052-0.009L98.921,114.8h-0.741L93.582,104l-0.052,0.009
		V114.8h-1.033v-12.54h1.378L98.525,113.302z"/>
	<path d="M114.425,111.304h-5.504l-1.266,3.497h-1.068l4.608-12.54h0.973l4.573,12.54h-1.068L114.425,111.304z M109.249,110.382
		h4.84l-2.377-6.649h-0.051L109.249,110.382z"/>
	<path d="M126.094,103.139h-4.272V114.8h-1.025v-11.662h-4.418v-0.878h9.715V103.139z"/>
	<path d="M129.41,114.8h-1.033v-12.54h1.033V114.8z"/>
	<path d="M142.08,109.555c0,1.619-0.443,2.928-1.331,3.927s-2.077,1.499-3.57,1.499c-1.47,0-2.643-0.5-3.519-1.499
		s-1.313-2.308-1.313-3.927v-2.041c0-1.614,0.437-2.923,1.309-3.928c0.873-1.004,2.044-1.507,3.514-1.507
		c1.493,0,2.684,0.502,3.574,1.507c0.89,1.005,1.335,2.314,1.335,3.928V109.555z M141.055,107.497c0-1.355-0.343-2.446-1.029-3.272
		c-0.686-0.827-1.638-1.24-2.855-1.24c-1.194,0-2.125,0.413-2.791,1.24c-0.666,0.827-0.999,1.917-0.999,3.272v2.059
		c0,1.367,0.334,2.463,1.003,3.29s1.601,1.24,2.795,1.24c1.223,0,2.174-0.412,2.855-1.236c0.68-0.824,1.021-1.922,1.021-3.294
		V107.497z"/>
	<path d="M153.99,114.8h-1.033l-7.123-10.731l-0.051,0.009V114.8h-1.033v-12.54h1.033l7.123,10.706l0.051-0.009V102.26h1.033V114.8z
		"/>
</g>
<g>
	<path d="M3.217,36.497V2.842h11.742c4.114,0,7.504,1.314,10.17,3.941c2.666,2.627,3.999,5.998,3.999,10.112v5.57
		c0,4.13-1.333,7.5-3.999,10.112s-6.056,3.918-10.17,3.918H3.217z M9.966,8.043v23.276h4.993c2.219,0,4.006-0.828,5.362-2.484
		s2.034-3.779,2.034-6.368V16.85c0-2.573-0.678-4.684-2.034-6.333s-3.144-2.474-5.362-2.474H9.966z"/>
</g>
<g>
	<path d="M27.859,71.135c-1.048,1.372-2.612,2.562-4.692,3.571c-2.08,1.01-4.761,1.514-8.043,1.514
		c-4.068,0-7.396-1.279-9.985-3.837c-2.589-2.558-3.883-5.878-3.883-9.962v-7.027c0-4.068,1.256-7.385,3.768-9.951
		c2.512-2.565,5.74-3.849,9.685-3.849c4.114,0,7.265,0.975,9.454,2.924c2.188,1.949,3.244,4.55,3.167,7.801l-0.046,0.139h-6.356
		c0-1.787-0.517-3.178-1.549-4.172c-1.033-0.994-2.535-1.491-4.507-1.491c-2.065,0-3.729,0.797-4.993,2.393
		c-1.264,1.595-1.895,3.648-1.895,6.16v7.073c0,2.542,0.647,4.615,1.941,6.217c1.294,1.603,3.028,2.404,5.201,2.404
		c1.603,0,2.87-0.162,3.802-0.485c0.932-0.323,1.653-0.731,2.161-1.225v-6.518h-6.472v-4.669h13.244V71.135z"/>
	<path d="M40.341,62.283v13.452h-6.75V42.081h11.649c3.837,0,6.838,0.875,9.003,2.624c2.165,1.749,3.248,4.188,3.248,7.316
		c0,1.726-0.458,3.217-1.375,4.472c-0.917,1.256-2.254,2.27-4.01,3.04c1.988,0.586,3.417,1.564,4.288,2.936
		c0.87,1.372,1.306,3.067,1.306,5.085v2.474c0,0.94,0.127,1.922,0.381,2.947c0.254,1.025,0.689,1.784,1.306,2.277v0.485h-6.958
		c-0.616-0.493-1.013-1.31-1.19-2.45c-0.177-1.14-0.266-2.242-0.266-3.305v-2.381c0-1.679-0.458-2.985-1.375-3.918
		c-0.917-0.932-2.215-1.398-3.895-1.398H40.341z M40.341,57.082h4.785c1.895,0,3.305-0.401,4.229-1.202
		c0.925-0.801,1.387-1.988,1.387-3.56c0-1.541-0.466-2.766-1.398-3.675c-0.933-0.909-2.3-1.364-4.103-1.364h-4.9V57.082z"/>
</g>
<g>
	<path d="M98.126,24.292v12.204h-6.75V2.842h12.875c3.868,0,6.911,0.986,9.13,2.959c2.219,1.973,3.328,4.569,3.328,7.789
		c0,3.221-1.109,5.81-3.328,7.767c-2.219,1.957-5.263,2.936-9.13,2.936H98.126z M98.126,19.092h6.125
		c1.88,0,3.306-0.512,4.276-1.537s1.456-2.331,1.456-3.918c0-1.618-0.482-2.955-1.445-4.01c-0.963-1.055-2.392-1.583-4.288-1.583
		h-6.125V19.092z"/>
</g>
<g>
	<path d="M147.247,75.735h-6.75L126.93,53.037l-0.139,0.023v22.675h-6.75V42.081h6.75l13.568,22.675l0.139-0.023V42.081h6.75V75.735
		z"/>
</g>
<rect x="33.638" y="29.899" fill="#396937" width="23.811" height="6.598"/>
<rect x="33.638" y="16.009" fill="#396937" width="23.811" height="6.598"/>
<rect x="33.638" y="3.188" fill="#396937" width="23.811" height="6.598"/>
<rect x="62.334" y="29.899" fill="#396937" width="23.809" height="6.598"/>
<rect x="62.334" y="16.009" fill="#396937" width="23.809" height="6.598"/>
<rect x="62.334" y="3.188" fill="#396937" width="23.809" height="6.598"/>
<rect x="62.304" y="69.136" fill="#396937" width="23.811" height="6.599"/>
<rect x="62.304" y="55.247" fill="#396937" width="23.811" height="6.598"/>
<rect x="62.304" y="42.426" fill="#396937" width="23.811" height="6.598"/>
<rect x="91" y="69.136" fill="#396937" width="23.809" height="6.599"/>
<rect x="91" y="55.247" fill="#396937" width="23.809" height="6.598"/>
<rect x="91" y="42.426" fill="#396937" width="23.809" height="6.598"/>
<g>
</g>
<g>
</g>
<g>
</g>
<g>
</g>
<g>
</g>
<g>
</g>
</svg>
