<svg xmlns="http://www.w3.org/2000/svg" viewBox="0 0 50 50" enable-background="new 0 0 50 50"><path fill="#131718" d="M38.7 41H11.3C10 41 9 40 9 38.7v-24c0-1.3 1-2.3 2.3-2.3h2.2v1.2c0 3.5 3.5 3.4 3.5 3.4 3.4 0 3.4-3.5 3.4-3.5v-1.1h9.1v1.2C29.6 17 33 17 33 17c3.4 0 3.4-3.5 3.4-3.5v-1.1h2.3c1.3 0 2.3 1 2.3 2.3v24c0 1.3-1 2.3-2.3 2.3zm0-20.6H11.3v18.3h27.4V20.4zm-18 4.6h2v9.2h-2.4V28c-.3.3-1.3.7-1.3.7l-.9.6v-2.1c.9-.5 1-.6 1.5-1s.8-.6 1.1-1.2zm11.2 2.1c-.6.6-1.5 1.1-1.9 1.8-.5.8-.6 1.4-.9 2.3-.2.8-.4 1.9-.5 3h-2.5c.2-1.5.5-2.9.9-3.9s1.1-1.9 2-3h-4V25h6.9v2.1zM33 15.9c-1.3 0-2.3-1-2.3-2.3v-2.3c0-1.3 1-2.3 2.3-2.3 1.3 0 2.3 1 2.3 2.3v2.3c0 1.2-1 2.3-2.3 2.3zm-16 0c-1.3 0-2.3-1-2.3-2.3v-2.3c0-1.3 1-2.3 2.3-2.3 1.3 0 2.3 1 2.3 2.3v2.3c0 1.2-1 2.3-2.3 2.3z"/></svg>