<svg xmlns="http://www.w3.org/2000/svg" viewBox="0 0 50 50" enable-background="new 0 0 50 50"><path d="M30.3 41h-16C13 41 12 40 12 38.7V11.3C12 10 13 9 14.3 9h20.6c1.3 0 2.3 1 2.3 2.3v22.9L30.3 41zm3.1-15.6c-.8-.3-4.6-.8-4.6-.8s.2.3.6.7c-1.4-.7-3.2-2-4.3-5.3 0 0-.7-2.6-.8-3.5-.1-.9.3-1.8.5-1 0 0 .4.9.2 1.6l.2 1.2s.7-2.6.2-3.3c0 0-1.9-1.1-2 .6-.1 1.7.1 4.2.3 4.6 0 0-2 6.1-4.6 9.8 0 0-1.1 1.6-1.6 1.8 0 0-1.2.5-.4-.6 0 0 1.9-2.2 2.3-2.8 0 0-3.5 2-3.7 2.5-.2.5-.7 1.5.6 2 0 0 1.5.1 2.6-1.1 0 0 2.6-3.2 3.1-4.2 0 0 1.6-.6 7.1-1.6 0 0 2.9 1.4 3.8 1.6.9.2 1.3.9 1.3.9s1.1-.8.6-1.1c-.5-.3-2.4-.6-3.6-1.3-.2-.1-.3-.1-.3-.1.8 0 2.1 0 2.7.3.7.4.6.7 1.1.3.5-.4-.5-.9-1.3-1.2zM35 33h-4.8s-1.1 0-1.1 1.1v4.6s-.2 1.8.8.8l5.5-5.5c.1-.1 1.3-1-.4-1zm-4.6-7c-.4 0-.8-.4-1.1-.7.6.3 1.1.5 1.5.7h-.4zm-5.9-4c.2 1 2.2 2.9 2.2 2.9-.8.1-4.3 1.3-4.3 1.3l2.1-4.2z"/></svg>