<svg xmlns="http://www.w3.org/2000/svg" viewBox="0 0 50 50" enable-background="new 0 0 50 50"><g fill="#131718"><path d="M26.2 10.1c0-.6-.6-1.1-1.2-1.1s-1.1.5-1.1 1.1v1.1h2.3v-1.1zM26.2 33h-2.3v3.5c0 .6-4.8 4.4-4.8 4.4H22l3-3.3 3.4 3.3H31l-4.8-4.4V33zM39.3 15.9c.9 0 1.7-.8 1.7-1.7 0-.9-.8-1.7-1.7-1.7H10.7c-.9 0-1.7.8-1.7 1.7 0 .9.8 1.7 1.7 1.7h1.7v13.9l-1.1-.1c-.9 0-1.3.5-1.3 1.1 0 .6.4 1.1 1.3 1.1h27.3c.9 0 1.4-.5 1.4-1.1 0-1.2-1.4-1.1-1.4-1.1l-1 .1V15.9h1.7zM20.5 27.3c-4.1 0-4.6-4.6-4.6-4.6 0-4.5 4.6-4.6 4.6-4.6v4.6h4.7c-.1 4.6-4.7 4.6-4.7 4.6zm8-4.5h-1.2v-1.2h1.2v1.2zm0-3.5h-1.2v-1.2h1.2v1.2zm5 3.5h-3.4c-.3 0-.6-.3-.6-.6s.3-.6.6-.6h3.4c.3 0 .6.3.6.6s-.2.6-.6.6zm0-3.5h-3.4c-.3 0-.6-.3-.6-.6s.3-.6.6-.6h3.4c.3 0 .6.3.6.6 0 .4-.2.6-.6.6z"/></g></svg>