<svg xmlns="http://www.w3.org/2000/svg" viewBox="0 0 50 50" enable-background="new 0 0 50 50"><path d="M23.1 18.8c-.3-.3-.7-.3-1 0L17 23.4l5.1 4.6c.3.3.7.3 1 0 .3-.3.3-.7 0-1l-4-3.6 4-3.6c.3-.3.3-.8 0-1zm4.8 0c-.3-.3-.7-.3-1 0-.3.3-.3.7 0 1l3.9 3.6-3.9 3.6c-.3.3-.3.7 0 1 .3.3.7.3 1 0l5.1-4.6-5.1-4.6zM37.8 11.8H12.2C10.4 11.8 9 13.3 9 15v17.6c0 1.8 1.4 3.5 3.1 3.8l7 1.4s-6 2.1-2.1 2.1h16c3.9 0-2.1-2.1-2.1-2.1l7-1.4c1.7-.3 3.1-2.1 3.1-3.8V15c0-1.7-1.4-3.2-3.2-3.2zm0 20.7H12.2V14.7h25.6v17.8z"/></svg>