<svg xmlns="http://www.w3.org/2000/svg" viewBox="0 0 50 50" enable-background="new 0 0 50 50"><path fill="#131718" d="M30.3 41h-16C13 41 12 40 12 38.7V11.3C12 10 13 9 14.3 9h20.6c1.3 0 2.3 1 2.3 2.3v22.9L30.3 41zM15.4 22.7c0 .6.5 1.1 1.1 1.1h4.6c.6 0 1.1-.5 1.1-1.1v-3.4c0-.6-.5-1.1-1.1-1.1h-4.6c-.6 0-1.1.5-1.1 1.1v3.4zm17.2-9.1h-16c-.6 0-1.1.5-1.1 1.1 0 .6.5 1.1 1.1 1.1h16c.6 0 1.1-.5 1.1-1.1 0-.6-.5-1.1-1.1-1.1zm.5 4.5h-6.9c-.3 0-.6.3-.6.6s.3.6.6.6h6.9c.3 0 .6-.3.6-.6s-.2-.6-.6-.6zm0 2.3h-6.9c-.3 0-.6.3-.6.6s.3.6.6.6h6.9c.3 0 .6-.3.6-.6s-.2-.6-.6-.6zm0 2.3h-6.9c-.3 0-.6.3-.6.6s.3.6.6.6h6.9c.3 0 .6-.3.6-.6s-.2-.6-.6-.6zm0 3.4H16c-.3 0-.6.3-.6.6s.3.6.6.6h17.1c.3 0 .6-.3.6-.6s-.2-.6-.6-.6zm0 3.5H16c-.3 0-.6.3-.6.6s.3.6.6.6h17.1c.3 0 .6-.3.6-.6 0-.4-.2-.6-.6-.6zM35 33h-4.8s-1.1 0-1.1 1.1v4.6s-.2 1.7.8.7l5.5-5.5c.1 0 1.3-.9-.4-.9z"/></svg>