<svg xmlns="http://www.w3.org/2000/svg" viewBox="0 0 50 50" enable-background="new 0 0 50 50"><path fill="#131718" d="M25 41c-8.8 0-16-7.2-16-16S16.2 9 25 9c9.5 0 16 7.2 16 16s-7.2 16-16 16zm-5.5-25.9c-1.7-.1-2.4.2-2.4.2l.1.5s.1.1.1.4c0 .3-1 .2-1 .2s-.2-.4-.1-.7c.1-.3.3-.8.3-.8l.6-.8s.2 0 .6.1c.4.1 1.2-.1 1.2-.1l-.4-1.5s-4.5 1.5-7.1 8.1c0 .4.2 1 .1 1.4-.1.4-.1.6-.1.9.1.4.6 1.1.6 1.1l.6.7s.1.9.4 1.3c.4.4-.2.8-.2.8s-.3 1.3-.2 1.8c.1.5.3 1.7.5 2 .2.3 1.6.9 1.6.9s.8.5.8.9.3.9.5 1.2c.2.4 1.3 1.1 1.2 1.8-.1.6.2.5.5 1.1.2.6.6.7 1.3.9 0 0 .6-1.8.4-2.1-.2-.4-.6-1.1-.6-1.1l.1-1.2s.2-.5.6-.8c.4-.3.5-.5.8-1.1.3-.6.7-1.4.8-1.8.1-.4 1.1-1.4.5-2-.6-.6-1.6-.6-2.1-.8-.5-.1-1.9-.4-2-.9-.1-.6-1.4-.4-1.8-.1-.4.2-1.8.6-1.9.1-.1-.5-.7-.9-.8-1.2-.1-.4.5 0 .6-.6.1-.6-.4-.8-.9-.5-.6.3-.7-.3-.4-.5.4-.2 1.6-1.3 1.8-.9.1.4 1.1.1 1.4.1.3-.1.7-.3.9.4.1.7 1 1.5 1 1.2 0-.3.3-1.3.1-1.7l-.4-.8s1.4 0 1.7-.8c.4-.8.4-1.2.4-1.6.1-.4 0-.9-.4-.8-.4.1-.2-.9.5-.7.7.1.3.6.3.6s.4 1.3.7.7c.3-.6 1.6-1.6.9-1.9-.6-.2.1-1.4-1.7-1.6zm1-2.9v.6c-.1.7.9 2.1 1.9 3.1s1.1-1.1 1-1.4c-.1-.3 1-1.2 1.1-1.9.1-.7.7-.5 1.2-1.2-.3-.3-3.7-.6-5.2.8zm6.1 4.1s-.7.2-.5.6c.2.4.9.8 1 .5.1-.3.5-.9-.5-1.1zm2.5.8c-.5-.5-.4-.7-.4-1.1.1-.4.4-1.2.1-1.1-.4.1-.7.3-.9.6 0 0-.5 1.2-.1 1.5.4.2 1.8.6 1.3.1zm2.5-4.4c-.1.6-.2 1.3-.2 1.3l-.6 1.3c-.1.9 1 1 1 1s1.5.3 2.1-2.1c-.9-1-2-1.6-2.3-1.5zm4.6 4.1c.1-.1.4.2.6.6.2.6.2 1.3.2 1.3l-1.5-.2s-.6-1.1-1.3-.8c-.8.4-.2.6-1.3.8-1.1.2-1.7-1.5-2.4-.9-.8.6-1.1-.1-1.3.7-.2.8 0 1.7 0 1.7l-1.5-.1c-1 .5-.5 2.1-.5 2.1s1.6.6 2.6 0 1.5-1.6 1.5-1.6l1.8 2.2c.6.4.9-1 .9-1-.8-1.2 0-1.7 0-1.7l1.7.8 1.1 1.3-.2 1-2.1.8s-.4 2.3-3.2.4c0 0-4.4-.8-4.4.6 0 1.3-.3.9-.2 2.6 0 0-.8 3.9 1.3 3.8 2.1-.1 1.2-.1 3.3-.7 1.9-1 1.9 1 1.9 1l-.2 1.8-.2 1.1s-.4.7.4 1.4c0 0 5-3.8 5.5-9.8-.8.1-1.3-.8-1.3-.8L36.2 24h1.9s.3.1.6.3c.5-.8-.9-5.2-1.9-6.9-.1-.4-.2-.8-.6-.6z"/></svg>