<svg xmlns="http://www.w3.org/2000/svg" viewBox="0 0 50 50" enable-background="new 0 0 50 50"><path fill="#131718" d="M37.6 30.8v7.3c.1 1.2-.9 0-.9 0s-4.2-7.4-16.6-7.4c0 0-1.2 0-1.2-1v-8.9s-.2-1 1.1-1c0 0 11.1.3 16.5-7.4 0 0 1.1-1.4 1.1-.1v18.5zM17.8 21l-.1 9.8c0 .8-1.1 2.3-1.1 2.3 2.2 1 .2 3.3.2 3.3.8 0 1 4.3 1 4.3 0 .9-1.2 1.2-1.2 1.2h-2.1c-1.3 0-1.1-1.2-1.1-1.2V33c0-1.3-1.2-2-1.2-2C8.9 31 9 27.4 9 27.4V23c0-3.1 3.4-3.2 3.4-3.2h4.3c1.3 0 1.1 1.2 1.1 1.2zm22.1 18.6c-.6 0-1.1-.5-1.1-1.1V12.1c0-.6.5-1.1 1.1-1.1.6 0 1.1.5 1.1 1.1v26.4c0 .6-.5 1.1-1.1 1.1z"/></svg>