<svg xmlns="http://www.w3.org/2000/svg" viewBox="0 0 50 50" enable-background="new 0 0 50 50"><path d="M14.1 20.9c1.5-1.2 2.7-.4 4.4 1.6.2.2.4 0 .6-.2.1-.1 2.3-2.1 2.4-2.2.1-.1.2-.3.1-.5-.2-.2-.8-1-1.2-1.5-2.9-3.8 7.9-6.4 6.3-6.4-.8 0-4.3-.1-4.8 0-2.1.2-4.6 2.1-6 3-1.7 1.2-2.3 1.9-2.4 1.9-.5.4-.1 1.4-1 2.2-.9.8-1.5.2-2 .7-.3.2-1 .8-1.2 1-.2.2-.3.5 0 .8 0 0 2 2.2 2.2 2.4.2.2.6.4.9.1.3-.2 1-.9 1.1-1 .1-.1-.1-1.4.6-1.9zm9.2.8c-.2-.2-.4-.2-.6 0l-2.3 2c-.2.2-.2.5 0 .6l13.3 15.2c.3.4.9.4 1.2.1l1.6-1.3c.4-.3.4-.9.1-1.2L23.3 21.7zM41 15.3c-.1-.8-.5-.6-.7-.3-.2.3-1.2 1.8-1.5 2.4-.4.6-1.3 1.9-3.1.7-1.8-1.3-1.2-2.2-.9-2.8.3-.6 1.3-2.3 1.5-2.6.1-.2 0-.8-.6-.6-.6.3-4.1 1.6-4.5 3.6-.5 2 .4 3.8-1.4 5.6l-2.2 2.2 2.2 2.5 2.7-2.5c.6-.6 2-1.3 3.2-1 2.6.6 4.1-.4 4.9-2 .7-1.4.5-4.5.4-5.2zM13.4 37.2c-.3.3-.3.9 0 1.2l1.5 1.5c.3.3.9.2 1.2-.1L24 32l-2.4-2.7-8.2 7.9z"/></svg>